<mxfile host="app.diagrams.net" agent="Mozilla/5.0 (Windows NT 10.0; Win64; x64) AppleWebKit/537.36 (KHTML, like Gecko) Chrome/137.0.0.0 Safari/537.36" version="27.1.6">
  <diagram name="PÃ¡gina-1" id="KWi3n0y2-UPZN67Sva7O">
    <mxGraphModel dx="984" dy="1710" grid="1" gridSize="10" guides="1" tooltips="1" connect="1" arrows="1" fold="1" page="1" pageScale="1" pageWidth="827" pageHeight="1169" math="0" shadow="0">
      <root>
        <mxCell id="0" />
        <mxCell id="1" parent="0" />
        <mxCell id="Tw-45FJCrzLkkma6JlbT-1" value="10" style="rounded=0;whiteSpace=wrap;html=1;" parent="1" vertex="1">
          <mxGeometry x="370" y="-1160" width="50" height="30" as="geometry" />
        </mxCell>
        <mxCell id="Tw-45FJCrzLkkma6JlbT-2" value="21" style="rounded=0;whiteSpace=wrap;html=1;" parent="1" vertex="1">
          <mxGeometry x="20" y="-1080" width="50" height="30" as="geometry" />
        </mxCell>
        <mxCell id="Tw-45FJCrzLkkma6JlbT-3" value="12" style="rounded=0;whiteSpace=wrap;html=1;" parent="1" vertex="1">
          <mxGeometry x="100" y="-1080" width="50" height="30" as="geometry" />
        </mxCell>
        <mxCell id="Tw-45FJCrzLkkma6JlbT-4" value="13" style="rounded=0;whiteSpace=wrap;html=1;" parent="1" vertex="1">
          <mxGeometry x="180" y="-1080" width="50" height="30" as="geometry" />
        </mxCell>
        <mxCell id="Tw-45FJCrzLkkma6JlbT-5" value="14" style="rounded=0;whiteSpace=wrap;html=1;" parent="1" vertex="1">
          <mxGeometry x="260" y="-1080" width="50" height="30" as="geometry" />
        </mxCell>
        <mxCell id="Tw-45FJCrzLkkma6JlbT-6" value="15" style="rounded=0;whiteSpace=wrap;html=1;" parent="1" vertex="1">
          <mxGeometry x="340" y="-1080" width="50" height="30" as="geometry" />
        </mxCell>
        <mxCell id="Tw-45FJCrzLkkma6JlbT-7" value="16" style="rounded=0;whiteSpace=wrap;html=1;" parent="1" vertex="1">
          <mxGeometry x="420" y="-1080" width="50" height="30" as="geometry" />
        </mxCell>
        <mxCell id="Tw-45FJCrzLkkma6JlbT-8" value="17" style="rounded=0;whiteSpace=wrap;html=1;" parent="1" vertex="1">
          <mxGeometry x="500" y="-1080" width="50" height="30" as="geometry" />
        </mxCell>
        <mxCell id="Tw-45FJCrzLkkma6JlbT-9" value="18" style="rounded=0;whiteSpace=wrap;html=1;" parent="1" vertex="1">
          <mxGeometry x="580" y="-1080" width="50" height="30" as="geometry" />
        </mxCell>
        <mxCell id="Tw-45FJCrzLkkma6JlbT-10" value="19" style="rounded=0;whiteSpace=wrap;html=1;" parent="1" vertex="1">
          <mxGeometry x="660" y="-1080" width="50" height="30" as="geometry" />
        </mxCell>
        <mxCell id="Tw-45FJCrzLkkma6JlbT-11" value="20" style="rounded=0;whiteSpace=wrap;html=1;" parent="1" vertex="1">
          <mxGeometry x="740" y="-1080" width="50" height="30" as="geometry" />
        </mxCell>
        <mxCell id="Tw-45FJCrzLkkma6JlbT-14" value="" style="endArrow=none;dashed=1;html=1;rounded=0;exitX=0.5;exitY=0;exitDx=0;exitDy=0;entryX=0.5;entryY=1;entryDx=0;entryDy=0;" parent="1" source="Tw-45FJCrzLkkma6JlbT-3" target="Tw-45FJCrzLkkma6JlbT-1" edge="1">
          <mxGeometry width="50" height="50" relative="1" as="geometry">
            <mxPoint x="320" y="-1080" as="sourcePoint" />
            <mxPoint x="370" y="-1130" as="targetPoint" />
          </mxGeometry>
        </mxCell>
        <mxCell id="Tw-45FJCrzLkkma6JlbT-16" value="" style="endArrow=none;dashed=1;html=1;rounded=0;exitX=0.5;exitY=0;exitDx=0;exitDy=0;entryX=0.5;entryY=1;entryDx=0;entryDy=0;" parent="1" source="Tw-45FJCrzLkkma6JlbT-6" target="Tw-45FJCrzLkkma6JlbT-1" edge="1">
          <mxGeometry width="50" height="50" relative="1" as="geometry">
            <mxPoint x="350" y="-1080" as="sourcePoint" />
            <mxPoint x="400" y="-1130" as="targetPoint" />
          </mxGeometry>
        </mxCell>
        <mxCell id="Tw-45FJCrzLkkma6JlbT-17" value="" style="endArrow=none;dashed=1;html=1;rounded=0;exitX=0.5;exitY=0;exitDx=0;exitDy=0;" parent="1" source="Tw-45FJCrzLkkma6JlbT-7" edge="1">
          <mxGeometry width="50" height="50" relative="1" as="geometry">
            <mxPoint x="350" y="-1080" as="sourcePoint" />
            <mxPoint x="400" y="-1130" as="targetPoint" />
          </mxGeometry>
        </mxCell>
        <mxCell id="Tw-45FJCrzLkkma6JlbT-18" value="" style="endArrow=none;dashed=1;html=1;rounded=0;entryX=0.5;entryY=1;entryDx=0;entryDy=0;exitX=0.5;exitY=0;exitDx=0;exitDy=0;" parent="1" source="Tw-45FJCrzLkkma6JlbT-8" target="Tw-45FJCrzLkkma6JlbT-1" edge="1">
          <mxGeometry width="50" height="50" relative="1" as="geometry">
            <mxPoint x="520" y="-1090" as="sourcePoint" />
            <mxPoint x="570" y="-1140" as="targetPoint" />
          </mxGeometry>
        </mxCell>
        <mxCell id="Tw-45FJCrzLkkma6JlbT-19" value="" style="endArrow=none;dashed=1;html=1;rounded=0;entryX=0.5;entryY=1;entryDx=0;entryDy=0;exitX=0.5;exitY=0;exitDx=0;exitDy=0;" parent="1" source="Tw-45FJCrzLkkma6JlbT-9" target="Tw-45FJCrzLkkma6JlbT-1" edge="1">
          <mxGeometry width="50" height="50" relative="1" as="geometry">
            <mxPoint x="570" y="-880" as="sourcePoint" />
            <mxPoint x="620" y="-930" as="targetPoint" />
          </mxGeometry>
        </mxCell>
        <mxCell id="Tw-45FJCrzLkkma6JlbT-20" value="" style="endArrow=none;dashed=1;html=1;rounded=0;exitX=0.5;exitY=0;exitDx=0;exitDy=0;" parent="1" source="Tw-45FJCrzLkkma6JlbT-11" edge="1">
          <mxGeometry width="50" height="50" relative="1" as="geometry">
            <mxPoint x="340" y="-1080" as="sourcePoint" />
            <mxPoint x="390" y="-1130" as="targetPoint" />
          </mxGeometry>
        </mxCell>
        <mxCell id="Tw-45FJCrzLkkma6JlbT-21" value="" style="endArrow=none;dashed=1;html=1;rounded=0;exitX=0.5;exitY=0;exitDx=0;exitDy=0;" parent="1" source="Tw-45FJCrzLkkma6JlbT-10" edge="1">
          <mxGeometry width="50" height="50" relative="1" as="geometry">
            <mxPoint x="350" y="-1080" as="sourcePoint" />
            <mxPoint x="400" y="-1130" as="targetPoint" />
          </mxGeometry>
        </mxCell>
        <mxCell id="Tw-45FJCrzLkkma6JlbT-22" value="" style="endArrow=none;dashed=1;html=1;rounded=0;exitX=0.403;exitY=-0.043;exitDx=0;exitDy=0;exitPerimeter=0;" parent="1" source="Tw-45FJCrzLkkma6JlbT-4" edge="1">
          <mxGeometry width="50" height="50" relative="1" as="geometry">
            <mxPoint x="350" y="-1080" as="sourcePoint" />
            <mxPoint x="400" y="-1130" as="targetPoint" />
          </mxGeometry>
        </mxCell>
        <mxCell id="Tw-45FJCrzLkkma6JlbT-23" value="" style="endArrow=none;dashed=1;html=1;rounded=0;exitX=0.5;exitY=0;exitDx=0;exitDy=0;entryX=0.5;entryY=1;entryDx=0;entryDy=0;" parent="1" source="Tw-45FJCrzLkkma6JlbT-5" target="Tw-45FJCrzLkkma6JlbT-1" edge="1">
          <mxGeometry width="50" height="50" relative="1" as="geometry">
            <mxPoint x="350" y="-1080" as="sourcePoint" />
            <mxPoint x="400" y="-1130" as="targetPoint" />
          </mxGeometry>
        </mxCell>
        <mxCell id="Tw-45FJCrzLkkma6JlbT-24" value="" style="endArrow=none;dashed=1;html=1;rounded=0;entryX=0.5;entryY=1;entryDx=0;entryDy=0;exitX=0.5;exitY=0;exitDx=0;exitDy=0;" parent="1" source="Tw-45FJCrzLkkma6JlbT-2" target="Tw-45FJCrzLkkma6JlbT-1" edge="1">
          <mxGeometry width="50" height="50" relative="1" as="geometry">
            <mxPoint x="420" y="-980" as="sourcePoint" />
            <mxPoint x="470" y="-1030" as="targetPoint" />
          </mxGeometry>
        </mxCell>
        <mxCell id="D9RuEg_qUWKROq-f-oOy-19" style="edgeStyle=orthogonalEdgeStyle;rounded=0;orthogonalLoop=1;jettySize=auto;html=1;entryX=0.5;entryY=0;entryDx=0;entryDy=0;" edge="1" parent="1" source="D9RuEg_qUWKROq-f-oOy-1" target="D9RuEg_qUWKROq-f-oOy-7">
          <mxGeometry relative="1" as="geometry" />
        </mxCell>
        <mxCell id="D9RuEg_qUWKROq-f-oOy-20" style="edgeStyle=orthogonalEdgeStyle;rounded=0;orthogonalLoop=1;jettySize=auto;html=1;entryX=0.5;entryY=0;entryDx=0;entryDy=0;" edge="1" parent="1" source="D9RuEg_qUWKROq-f-oOy-1" target="D9RuEg_qUWKROq-f-oOy-8">
          <mxGeometry relative="1" as="geometry" />
        </mxCell>
        <mxCell id="D9RuEg_qUWKROq-f-oOy-21" style="edgeStyle=orthogonalEdgeStyle;rounded=0;orthogonalLoop=1;jettySize=auto;html=1;exitX=0.5;exitY=1;exitDx=0;exitDy=0;entryX=0.5;entryY=0;entryDx=0;entryDy=0;" edge="1" parent="1" source="D9RuEg_qUWKROq-f-oOy-1" target="D9RuEg_qUWKROq-f-oOy-6">
          <mxGeometry relative="1" as="geometry" />
        </mxCell>
        <mxCell id="D9RuEg_qUWKROq-f-oOy-1" value="14" style="rounded=0;whiteSpace=wrap;html=1;" vertex="1" parent="1">
          <mxGeometry x="370" y="-900" width="50" height="30" as="geometry" />
        </mxCell>
        <mxCell id="D9RuEg_qUWKROq-f-oOy-22" style="edgeStyle=orthogonalEdgeStyle;rounded=0;orthogonalLoop=1;jettySize=auto;html=1;entryX=0.5;entryY=0;entryDx=0;entryDy=0;" edge="1" parent="1" source="D9RuEg_qUWKROq-f-oOy-6" target="D9RuEg_qUWKROq-f-oOy-13">
          <mxGeometry relative="1" as="geometry" />
        </mxCell>
        <mxCell id="D9RuEg_qUWKROq-f-oOy-23" style="edgeStyle=orthogonalEdgeStyle;rounded=0;orthogonalLoop=1;jettySize=auto;html=1;exitX=0.5;exitY=1;exitDx=0;exitDy=0;entryX=0.5;entryY=0;entryDx=0;entryDy=0;" edge="1" parent="1" source="D9RuEg_qUWKROq-f-oOy-6" target="D9RuEg_qUWKROq-f-oOy-14">
          <mxGeometry relative="1" as="geometry" />
        </mxCell>
        <mxCell id="D9RuEg_qUWKROq-f-oOy-6" value="15" style="rounded=0;whiteSpace=wrap;html=1;" vertex="1" parent="1">
          <mxGeometry x="320" y="-800" width="50" height="30" as="geometry" />
        </mxCell>
        <mxCell id="D9RuEg_qUWKROq-f-oOy-7" value="17-21" style="rounded=0;whiteSpace=wrap;html=1;fillColor=#66FF66;" vertex="1" parent="1">
          <mxGeometry x="520" y="-800" width="50" height="30" as="geometry" />
        </mxCell>
        <mxCell id="D9RuEg_qUWKROq-f-oOy-18" style="edgeStyle=orthogonalEdgeStyle;rounded=0;orthogonalLoop=1;jettySize=auto;html=1;exitX=0.5;exitY=1;exitDx=0;exitDy=0;entryX=0.5;entryY=0;entryDx=0;entryDy=0;" edge="1" parent="1" source="D9RuEg_qUWKROq-f-oOy-8" target="D9RuEg_qUWKROq-f-oOy-12">
          <mxGeometry relative="1" as="geometry" />
        </mxCell>
        <mxCell id="D9RuEg_qUWKROq-f-oOy-8" value="16" style="rounded=0;whiteSpace=wrap;html=1;" vertex="1" parent="1">
          <mxGeometry x="420" y="-800" width="50" height="30" as="geometry" />
        </mxCell>
        <mxCell id="D9RuEg_qUWKROq-f-oOy-12" value="17-21" style="rounded=0;whiteSpace=wrap;html=1;fillColor=#66FF66;" vertex="1" parent="1">
          <mxGeometry x="520" y="-720" width="50" height="30" as="geometry" />
        </mxCell>
        <mxCell id="D9RuEg_qUWKROq-f-oOy-13" value="17-21" style="rounded=0;whiteSpace=wrap;html=1;fillColor=#66FF66;" vertex="1" parent="1">
          <mxGeometry x="370" y="-720" width="50" height="30" as="geometry" />
        </mxCell>
        <mxCell id="D9RuEg_qUWKROq-f-oOy-17" style="edgeStyle=orthogonalEdgeStyle;rounded=0;orthogonalLoop=1;jettySize=auto;html=1;entryX=0.5;entryY=0;entryDx=0;entryDy=0;" edge="1" parent="1" source="D9RuEg_qUWKROq-f-oOy-14" target="D9RuEg_qUWKROq-f-oOy-16">
          <mxGeometry relative="1" as="geometry" />
        </mxCell>
        <mxCell id="D9RuEg_qUWKROq-f-oOy-14" value="16" style="rounded=0;whiteSpace=wrap;html=1;" vertex="1" parent="1">
          <mxGeometry x="270" y="-720" width="50" height="30" as="geometry" />
        </mxCell>
        <mxCell id="D9RuEg_qUWKROq-f-oOy-16" value="17-21" style="rounded=0;whiteSpace=wrap;html=1;fillColor=#66FF66;" vertex="1" parent="1">
          <mxGeometry x="270" y="-650" width="50" height="30" as="geometry" />
        </mxCell>
        <mxCell id="D9RuEg_qUWKROq-f-oOy-34" style="edgeStyle=orthogonalEdgeStyle;rounded=0;orthogonalLoop=1;jettySize=auto;html=1;entryX=0.5;entryY=0;entryDx=0;entryDy=0;" edge="1" parent="1" source="D9RuEg_qUWKROq-f-oOy-24" target="D9RuEg_qUWKROq-f-oOy-27">
          <mxGeometry relative="1" as="geometry" />
        </mxCell>
        <mxCell id="D9RuEg_qUWKROq-f-oOy-35" style="edgeStyle=orthogonalEdgeStyle;rounded=0;orthogonalLoop=1;jettySize=auto;html=1;exitX=0.5;exitY=1;exitDx=0;exitDy=0;entryX=0.5;entryY=0;entryDx=0;entryDy=0;" edge="1" parent="1" source="D9RuEg_qUWKROq-f-oOy-24" target="D9RuEg_qUWKROq-f-oOy-25">
          <mxGeometry relative="1" as="geometry" />
        </mxCell>
        <mxCell id="D9RuEg_qUWKROq-f-oOy-36" style="edgeStyle=orthogonalEdgeStyle;rounded=0;orthogonalLoop=1;jettySize=auto;html=1;entryX=0.5;entryY=0;entryDx=0;entryDy=0;" edge="1" parent="1" source="D9RuEg_qUWKROq-f-oOy-24" target="D9RuEg_qUWKROq-f-oOy-26">
          <mxGeometry relative="1" as="geometry" />
        </mxCell>
        <mxCell id="D9RuEg_qUWKROq-f-oOy-37" style="edgeStyle=orthogonalEdgeStyle;rounded=0;orthogonalLoop=1;jettySize=auto;html=1;exitX=0.5;exitY=1;exitDx=0;exitDy=0;entryX=0.5;entryY=0;entryDx=0;entryDy=0;" edge="1" parent="1" source="D9RuEg_qUWKROq-f-oOy-24" target="D9RuEg_qUWKROq-f-oOy-1">
          <mxGeometry relative="1" as="geometry" />
        </mxCell>
        <mxCell id="D9RuEg_qUWKROq-f-oOy-24" value="13" style="rounded=0;whiteSpace=wrap;html=1;" vertex="1" parent="1">
          <mxGeometry x="560" y="-990" width="50" height="30" as="geometry" />
        </mxCell>
        <mxCell id="D9RuEg_qUWKROq-f-oOy-38" style="edgeStyle=orthogonalEdgeStyle;rounded=0;orthogonalLoop=1;jettySize=auto;html=1;exitX=0.5;exitY=1;exitDx=0;exitDy=0;entryX=0.5;entryY=0;entryDx=0;entryDy=0;" edge="1" parent="1" source="D9RuEg_qUWKROq-f-oOy-25" target="D9RuEg_qUWKROq-f-oOy-31">
          <mxGeometry relative="1" as="geometry" />
        </mxCell>
        <mxCell id="D9RuEg_qUWKROq-f-oOy-39" style="edgeStyle=orthogonalEdgeStyle;rounded=0;orthogonalLoop=1;jettySize=auto;html=1;exitX=0.5;exitY=1;exitDx=0;exitDy=0;entryX=0.5;entryY=0;entryDx=0;entryDy=0;" edge="1" parent="1" source="D9RuEg_qUWKROq-f-oOy-25" target="D9RuEg_qUWKROq-f-oOy-32">
          <mxGeometry relative="1" as="geometry" />
        </mxCell>
        <mxCell id="D9RuEg_qUWKROq-f-oOy-25" value="15" style="rounded=0;whiteSpace=wrap;html=1;" vertex="1" parent="1">
          <mxGeometry x="730" y="-900" width="50" height="30" as="geometry" />
        </mxCell>
        <mxCell id="D9RuEg_qUWKROq-f-oOy-30" style="edgeStyle=orthogonalEdgeStyle;rounded=0;orthogonalLoop=1;jettySize=auto;html=1;exitX=0.5;exitY=1;exitDx=0;exitDy=0;entryX=0.5;entryY=0;entryDx=0;entryDy=0;" edge="1" parent="1" source="D9RuEg_qUWKROq-f-oOy-26" target="D9RuEg_qUWKROq-f-oOy-29">
          <mxGeometry relative="1" as="geometry" />
        </mxCell>
        <mxCell id="D9RuEg_qUWKROq-f-oOy-26" value="16" style="rounded=0;whiteSpace=wrap;html=1;" vertex="1" parent="1">
          <mxGeometry x="820" y="-900" width="50" height="30" as="geometry" />
        </mxCell>
        <mxCell id="D9RuEg_qUWKROq-f-oOy-27" value="17-21" style="rounded=0;whiteSpace=wrap;html=1;fillColor=#66FF66;" vertex="1" parent="1">
          <mxGeometry x="920" y="-900" width="50" height="30" as="geometry" />
        </mxCell>
        <mxCell id="D9RuEg_qUWKROq-f-oOy-29" value="17-21" style="rounded=0;whiteSpace=wrap;html=1;fillColor=#66FF66;" vertex="1" parent="1">
          <mxGeometry x="920" y="-790" width="50" height="30" as="geometry" />
        </mxCell>
        <mxCell id="D9RuEg_qUWKROq-f-oOy-40" style="edgeStyle=orthogonalEdgeStyle;rounded=0;orthogonalLoop=1;jettySize=auto;html=1;exitX=0.5;exitY=1;exitDx=0;exitDy=0;entryX=0.5;entryY=0;entryDx=0;entryDy=0;" edge="1" parent="1" source="D9RuEg_qUWKROq-f-oOy-31" target="D9RuEg_qUWKROq-f-oOy-33">
          <mxGeometry relative="1" as="geometry" />
        </mxCell>
        <mxCell id="D9RuEg_qUWKROq-f-oOy-31" value="16" style="rounded=0;whiteSpace=wrap;html=1;" vertex="1" parent="1">
          <mxGeometry x="680" y="-800" width="50" height="30" as="geometry" />
        </mxCell>
        <mxCell id="D9RuEg_qUWKROq-f-oOy-32" value="17-21" style="rounded=0;whiteSpace=wrap;html=1;fillColor=#66FF66;" vertex="1" parent="1">
          <mxGeometry x="790" y="-800" width="50" height="30" as="geometry" />
        </mxCell>
        <mxCell id="D9RuEg_qUWKROq-f-oOy-33" value="17-21" style="rounded=0;whiteSpace=wrap;html=1;fillColor=#66FF66;" vertex="1" parent="1">
          <mxGeometry x="680" y="-720" width="50" height="30" as="geometry" />
        </mxCell>
      </root>
    </mxGraphModel>
  </diagram>
</mxfile>
